<?xml version="1.0" standalone="no"?>
<!DOCTYPE svg PUBLIC "-//W3C//DTD SVG 20010904//EN"
 "http://www.w3.org/TR/2001/REC-SVG-20010904/DTD/svg10.dtd">
<svg version="1.0" xmlns="http://www.w3.org/2000/svg"
 width="512.000000pt" height="512.000000pt" viewBox="0 0 512.000000 512.000000"
 preserveAspectRatio="xMidYMid meet">
<metadata>
Created by potrace 1.14, written by Peter Selinger 2001-2017
</metadata>
<g transform="translate(0.000000,512.000000) scale(0.100000,-0.100000)"
fill="#000000" stroke="none">
<path d="M2945 4879 c-94 -50 -186 -120 -275 -209 -82 -81 -119 -129 -197
-255 -31 -51 -109 -239 -119 -289 -5 -26 -5 -26 -49 -16 -119 28 -355 43 -412
26 -10 -2 -36 -7 -58 -11 -418 -59 -778 -240 -870 -438 -18 -38 -22 -62 -20
-110 4 -55 1 -64 -28 -101 -73 -92 -235 -380 -261 -466 -5 -14 -10 -29 -12
-35 -140 -393 -165 -755 -79 -1166 23 -113 104 -342 151 -428 13 -24 24 -47
24 -52 0 -14 116 -201 172 -276 212 -285 507 -522 818 -656 36 -16 79 -35 95
-42 112 -49 339 -103 515 -123 86 -9 377 -9 464 1 292 32 638 160 886 327 50
34 99 68 108 75 10 8 37 30 62 50 136 110 314 310 419 470 61 94 168 308 206
415 29 83 80 272 89 335 4 23 8 52 11 65 9 48 19 198 19 290 -1 261 -44 496
-137 741 -61 161 -203 418 -281 506 -15 18 -19 35 -17 78 4 102 -55 188 -193
284 -275 190 -664 294 -956 255 -37 -5 -50 -3 -50 6 0 21 113 124 165 150 69
35 95 59 95 90 0 41 -158 502 -178 516 -25 19 -62 17 -107 -7z"/>
</g>
</svg>
